inDegrees=yes
name=ik_Xsens
DataType=double
version=3
OpenSimVersion=4.4-2022-07-23-0e9fedc
endheader
time	pelvis_tilt	pelvis_list	pelvis_rotation	pelvis_tx	pelvis_ty	pelvis_tz	hip_flexion_r	hip_adduction_r	hip_rotation_r	knee_angle_r	knee_angle_r_beta	ankle_angle_r	subtalar_angle_r	mtp_angle_r	hip_flexion_l	hip_adduction_l	hip_rotation_l	knee_angle_l	knee_angle_l_beta	ankle_angle_l	subtalar_angle_l	mtp_angle_l	lumbar_extension	lumbar_bending	lumbar_rotation	arm_flex_r	arm_add_r	arm_rot_r	elbow_flex_r	pro_sup_r	wrist_flex_r	wrist_dev_r	arm_flex_l	arm_add_l	arm_rot_l	elbow_flex_l	pro_sup_l	wrist_flex_l	wrist_dev_l
0	0	0	0	0	0.93	0	0	0	0	0	0	0	0	0	0	0	0	0	0	0	0	0	0	0	0	0	0	0	0	0	0	0	0	0	0	0	0	0	0
0.01666666666666667	0	0	0	0	0.93	0	0	0	0	0	0	0	0	0	0	0	0	0	0	0	0	0	0	0	0	-0.3961154631116633	0.1896203450725733	0.01691026991512575	-0.4604590412667678	0.3509600600242831	0	0	-0.3017430553624098	0.1509306944156591	0.1281781262169756	-0.1729026347302935	0.4961162723377233	0	0
0.03333333333333333	0	0	0	0	0.93	0	0	0	0	0	0	0	0	0	0	0	0	0	0	0	0	0	0	0	0	-0.7535878077029973	0.3176685322843048	-0.05759514756608694	-0.8380480465916388	0.9303873750105716	0	0	-0.6220453973951866	0.2473999447978407	0.296363777939468	-0.152109897093602	0.7883479648297231	0	0
0.05	0	0	0	0	0.93	0	0	0	0	4.491851856314195e-38	5.877471754111438e-39	0	0	0	0	0	0	4.491851856314195e-38	5.877471754111438e-39	0	0	0	0	0	0	-1.07508747707145	0.3948854295682777	-0.1475080997885498	-1.005070255433625	1.589068782749016	0	0	-0.9371318125080174	0.2815965052379654	0.5428020012318542	0.06090864555630161	0.9953755486840546	0	0
0.06666666666666667	0	0	0	0	0.93	0	0	0	0	0	0	0	0	0	0	0	0	0	0	0	0	0	0	0	0	-1.373026832021616	0.4244550304839098	-0.09185462606932498	-0.9547215565028504	2.098160083668329	0	0	-1.179630192011764	0.3141414190027976	0.8475404135861828	0.2678188802749967	1.397002944231263	0	0
0.08333333333333333	0	0	0	0	0.93	0	0	0	0	0	0	0	0	0	0	0	0	0	0	0	0	0	0	0	0	-1.611161309653051	0.3988910842769396	-0.03176794697464388	-0.6900613431625596	2.731754414177392	0	0	-1.390802722928181	0.3179980511250419	1.178853273183682	0.5476965401133884	1.92517756297174	0	0
0.1	0	0	0	0	0.93	0	0	0	0	0	0	0	0	0	0	0	0	0	0	0	0	0	0	0	0	-1.817270792920476	0.3242866757435235	0.0383432411055219	-0.1326085733689966	3.393290380824165	0	0	-1.589338817516293	0.2918319773242057	1.497863308063136	1.018131756742433	2.436106676240251	0	0
0.1166666666666667	0	0	0	0	0.93	0	0	0	0	0	0	0	0	0	0	0	0	0	0	0	0	0	0	0	0	-1.899247635410231	0.2792343886052546	0.1180402788506619	0.4664602271079622	3.936362058293287	0	0	-1.776753712410426	0.2200415033676056	1.779248727087471	1.675495169354128	2.919350727752119	0	0
0.1333333333333333	0	0	0	0	0.93	0	0	0	0	0	0	0	0	0	0	0	0	0	0	0	0	0	0	0	0	-1.85153885765687	0.359287325292885	0.3478645214294841	0.8878889356070467	4.012357042661598	0	0	-1.893023511586215	0.05401335043345429	2.009987463016073	2.541114044932048	3.438213638577138	0	0
0.15	0	0	0	0	0.93	0	0	0	0	0	0	0	0	0	0	0	0	0	0	0	0	0	0	0	0	-1.666526146638646	0.5718157817046382	0.9559626364362782	1.046943130091839	3.404875031715541	0	0	-1.866974069282752	-0.1775820800222951	2.262964556141075	3.524457094917031	4.074454937054869	0	0
0.1666666666666667	0	0	0	0	0.93	0	0	0	0	0	0	0	0	0	0	0	0	0	0	0	0	0	0	0	0	-1.376440739674744	0.8361100456049576	1.921846757685386	0.8722995804461874	2.133959505013032	0	0	-1.738268763929806	-0.422823627362489	2.465317816668575	4.639687783783637	4.905749495705006	0	0
0.1833333333333333	0	0	0	0	0.93	0	0	0	0	0	0	0	0	0	0	0	0	0	0	0	0	0	0	0	0	-1.094359223232541	1.048720252444349	2.730390411559433	0.567785163827521	1.17591408575735	0	0	-1.460154547512514	-0.5754086549451872	2.762926139017444	5.619004357792164	5.686328010103679	0	0
0.2	0	0	0	0	0.93	0	0	0	0	0	0	0	0	0	0	0	0	0	0	0	0	0	0	0	0	-0.8516818655752521	1.085612774481812	3.049499687410201	0.07676514211288302	1.063741556975484	0	0	-1.099886477136656	-0.5609182514241309	3.275985067605861	6.460786837581628	6.217933415600761	0	0
0.2166666666666667	0	0	0	0	0.93	0	0	0	0	0	0	0	0	0	0	0	0	0	0	0	0	0	0	0	0	-0.5743318062112336	1.007380202859999	2.913228363136364	-0.5182767489409537	1.776810784164511	0	0	-0.7172422655155186	-0.4452754532793375	4.071675181731177	7.223129213949721	6.389288802491083	0	0
0.2333333333333333	0	0	0	0	0.93	0	0	0	0	0	0	0	0	0	0	0	0	1.409341893590975e-40	1.145548870583259e-41	0	0	0	0	0	0	-0.1889805354668372	0.9754495882384251	2.881270754581199	-1.172978691446635	2.450116433242418	0	0	-0.3989556134540663	-0.2807262589629335	4.984209838189088	8.051012449358989	6.362032337826386	0	0
0.25	-8.709359118706391e-26	-3.229713783003086e-18	-1.825125210498046e-26	4.148028830010929e-19	0.93	6.462840144220332e-21	-1.077613842297402e-33	8.36706802168764e-27	5.105795176708926e-24	1.763130288378139e-15	3.077242822266593e-17	-3.064225371976122e-19	-6.778927003441235e-20	1.398733018794271e-17	-3.699299400925868e-24	2.47241173182967e-14	2.435978392366693e-14	1.76421789652871e-15	3.079141256698101e-17	9.082240337926899e-18	2.528863383882254e-21	-6.155119270998495e-19	-4.544215744482203e-14	2.372117476066474e-14	8.633222817219504e-15	0.1413748758502158	0.9712895022241232	3.070465064290418	-1.671777903327449	2.726392564702887	-2.548892519100057e-17	-4.637345621406058e-20	-0.1130765101157012	-0.126795596852429	5.791877970223283	8.837176025968477	6.232407697345584	-1.454171292721473e-17	-7.896981990118025e-16
0.2666666666666667	0	0	0	0	0.93	0	0	0	0	0	0	0	0	0	0	0	0	0	0	0	0	0	0	0	0	0.3752800936924711	0.9482782265594819	3.28129262031835	-1.951378690236468	2.744855820933636	0	0	0.2846613064860193	0.1230651708548159	6.464458835105966	9.322644776009177	6.10526149126315	0	0
